/* XPM */
static char * player_up_xpm[] = {
"24 24 18 1",
" 	c None",
".	c #1A070F",
"+	c #C04101",
"@	c #841F19",
"#	c #E7B19E",
"$	c #AFB5CE",
"%	c #53272E",
"&	c #B66E62",
"*	c #884949",
"=	c #846A58",
"-	c #AF9582",
";	c #656E87",
">	c #292F37",
",	c #733B41",
"'	c #EFEFEF",
")	c #9B534A",
"!	c #562C3A",
"~	c #BE675D",
"                        ",
"         .......        ",
"        .+++++++.       ",
"       .@+++++++@.      ",
"       .@+++++++@.      ",
"       .@@+++++@@.      ",
"       .@@@@@@@@@.      ",
"      .#@@@+++@@@#..    ",
"      .#@@@@@@@@@.$.    ",
"       .#@@@@....%.     ",
"       .&#@@@.**%.      ",
"        .&&##..**.      ",
"       .=-&%%;>.*.      ",
"      .==-.%,%;....     ",
"      .-..'$%,%-.-.     ",
"     .--.'$>$%%=.--.    ",
"     .,.'$;$$.=.,,,.    ",
"     ..'$;$$.-=.))).    ",
"     ..'$$'.!!!.,!).    ",
"     ..'''.~~~)..,,.    ",
"      ....),.,). ..     ",
"         .,. .,.        ",
"        .!). .)!.       ",
"        .)). .)).       "};
