/* XPM */
static char * player_up_xpm[] = {
"24 24 21 1",
" 	c #195524",
".	c #1A070F",
"+	c #C04101",
"@	c #841F19",
"#	c #488A1B",
"$	c #246F20",
"%	c #E7B19E",
"&	c #AFB5CE",
"*	c #53272E",
"=	c #B66E62",
"-	c #884949",
";	c #846A58",
">	c #AF9582",
",	c #656E87",
"'	c #292F37",
")	c #733B41",
"!	c #EFEFEF",
"~	c #9B534A",
"{	c #562C3A",
"]	c #BE675D",
"^	c #0E3B28",
"                        ",
"         .......        ",
"        .+++++++.       ",
"       .@+++++++@.      ",
"       .@+++++++@.      ",
"       .@@+++++@@.      ",
"    ##$.@@@@@@@@@.      ",
"     $.%@@@+++@@@%..    ",
"      .%@@@@@@@@@.&.    ",
"      $.%@@@@....*.     ",
"       .=%@@@.--*.      ",
"        .==%%..--.      ",
"       .;>=**,'.-.      ",
"      .;;>.*)*,....     ",
"      .>..!&*)*>.>.     ",
"     .>>.!&'&**;.>>.    ",
"     .).!&,&&.;.))).    ",
"     ..!&,&&.>;.~~~.    ",
"     ..!&&!.{{{.){~.    ",
"     ..!!!.]]]~..)).^   ",
"      ....~).)~. ..^    ",
"         .). .).        ",
"        .{~. .~{.       ",
"        .~~. .~~.       "};
