/* XPM */
static char * player_left_xpm[] = {
"24 24 22 1",
" 	c #195524",
".	c #1A070F",
"+	c #C04101",
"@	c #841F19",
"#	c #B66E62",
"$	c #488A1B",
"%	c #E7B19E",
"&	c #AFB5CE",
"*	c #246F20",
"=	c #53272E",
"-	c #F4F5FE",
";	c #F9DCC5",
">	c #884949",
",	c #292F37",
"'	c #656E87",
")	c #846A58",
"!	c #AF9582",
"~	c #CEB5A2",
"{	c #733B41",
"]	c #9B534A",
"^	c #562C3A",
"/	c #0E3B28",
"                        ",
"         .......        ",
"        .++@+++@.       ",
"       .++++++++@.      ",
"      .+@@@@@@@@@.      ",
"      .@@#####@@@.   .. ",
"    $$..%%%%%%%@@.  .&. ",
"     *$.+++%+++%@%..=.  ",
"      *..-#;.-%%@%.=.   ",
"      *.%%#;%%%%#.>=.   ",
"       .#%%%%%%%.,.=.   ",
"        .%###%%#.'...   ",
"        .#%%%%%.).      ",
"       .)......!~).     ",
"       .)!#%#!!!!!.     ",
"       .)!!!!!!).!!.    ",
"      .{.)!!!!).{{'.    ",
"      .]{.!)!!).]]].    ",
"     .]^{.'&'^^.{^].    ",
"     .]]..]{]]]..{{./   ",
"      .. .]{.{]. ../    ",
"         .{. .{.        ",
"        .^'. .'^.       ",
"       .]]]. .]].       "};
