/* XPM */
static char * player_right_xpm[] = {
"24 24 22 1",
" 	c #195524",
".	c #1A070F",
"+	c #841F19",
"@	c #C04101",
"#	c #B66E62",
"$	c #AFB5CE",
"%	c #488A1B",
"&	c #246F20",
"*	c #E7B19E",
"=	c #53272E",
"-	c #F4F5FE",
";	c #F9DCC5",
">	c #884949",
",	c #292F37",
"'	c #656E87",
")	c #846A58",
"!	c #CEB5A2",
"~	c #AF9582",
"{	c #733B41",
"]	c #9B534A",
"^	c #562C3A",
"/	c #0E3B28",
"                        ",
"         .......        ",
"        .+@@@+@@.       ",
"       .+@@@@@@@@.      ",
"       .+++++++++@.     ",
"  ..   .+++#####++.     ",
"  .$.%&.++*******..     ",
"   .=..*+*@@@*@@@.      ",
"    .=.*+**-.;#-..      ",
"    .=>.#****;#**.      ",
"    .=.,.*******#.      ",
"    ...'.#**###*.       ",
"       .).*****#.       ",
"      .)!~......).      ",
"      .~~~~~#*#~).      ",
"     .~~.)~~~~~~).      ",
"     .'{{.)~~~~).{.     ",
"     .]]].)~~)~.{].     ",
"     .]^{.^^'$'.{^].    ",
"     .{{..]]]{]..]]./   ",
"      .. .]{.{]. ../    ",
"         .{. .{.        ",
"        .^'. .'^.       ",
"        .]]. .]]].      "};
