/* XPM */
static char * collectible_xpm[] = {
"24 24 11 1",
" 	c #195524",
".	c #488A1B",
"+	c #246F20",
"@	c #0E3B28",
"#	c #25131A",
"$	c #CC2F7B",
"%	c #FF5277",
"&	c #DFE0E8",
"*	c #FF94AB",
"=	c #14182E",
"-	c #692464",
"                        ",
"                        ",
"                        ",
"                        ",
"                        ",
"                        ",
"    ..+@ +@             ",
"     +.+@######         ",
"      ++#$%%&*$#        ",
"      +#$%%$$&*%=       ",
"      #$%%%%%*&*%#      ",
"      #%%*&*&&&&*#      ",
"      #-$$$$%%$$-#      ",
"       #-%%%**&$#       ",
"        #-%**&$#        ",
"         #$*%$#         ",
"          #$%#  .+      ",
"          .##  ++@@     ",
"           +.+ ++       ",
"            ++  @ ++@   ",
"                 ++@    ",
"                        ",
"                        ",
"                        "};
