/* XPM */
static char * collectible_xpm[] = {
"24 24 8 1",
" 	c None",
".	c #25131A",
"+	c #CC2F7B",
"@	c #FF5277",
"#	c #DFE0E8",
"$	c #FF94AB",
"%	c #14182E",
"&	c #692464",
"                        ",
"                        ",
"                        ",
"                        ",
"                        ",
"                        ",
"                        ",
"         ......         ",
"        .+@@#$+.        ",
"       .+@@++#$@%       ",
"      .+@@@@@$#$@.      ",
"      .@@$#$####$.      ",
"      .&++++@@++&.      ",
"       .&@@@$$#+.       ",
"        .&@$$#+.        ",
"         .+$@+.         ",
"          .+@.          ",
"           ..           ",
"                        ",
"                        ",
"                        ",
"                        ",
"                        ",
"                        "};
