/* XPM */
static char * exit_active_xpm[] = {
"24 24 8 1",
" 	c None",
".	c #25131A",
"+	c #A0938E",
"@	c #7D7071",
"#	c #595059",
"$	c #F1BD20",
"%	c #CFC6B8",
"&	c #3D3347",
"                        ",
"        ........        ",
"     ...++++++++...     ",
"   ..@++########++@..   ",
"  .@+###$$$$$$$$###+@.  ",
" .@##$$$$$$$$$$$$$$##@. ",
".@#$$$$$$$$$$$$$$$$$$#@.",
".@#$$$$$$$$$$$$$$$$$$#@.",
".+#$$$$$$$$$$$$$$$$$$#+.",
".++##$$$$$$$$$$$$$$##++.",
".#++%###$$$$$$$$###%++#.",
" .#@++%%########%%++@#. ",
"  .##@+++%%%%%%+++@##.  ",
"   ..###@++++++@###..   ",
"     ..##########..     ",
"       .&######&.       ",
"      ..#&&&&&&#..      ",
"     .#@#&####&#@#.     ",
"     .@@#&&&&&&#@@.     ",
"     .@@#&&&&&&#@@.     ",
"     .@@@@@@@@@@@@.     ",
"     .%%%%%%%%%%%%.     ",
"     .@+++++++++@@.     ",
"     .@++++++@+@+@.     "};
