/* XPM */
static char * exit_xpm[] = {
"24 24 10 1",
" 	c #195524",
".	c #25131A",
"+	c #A0938E",
"@	c #7D7071",
"#	c #595059",
"$	c #3D3347",
"%	c #3D253B",
"&	c #CFC6B8",
"*	c #246F20",
"=	c #0E3B28",
"                        ",
"        ........        ",
"     ...++++++++...     ",
"   ..@++########++@..   ",
"  .@+###$$$$$$$$###+@.  ",
" .@##$$$%%%%%%%%$$$##@. ",
".@#$$%%%%%%%%%%%%%%$$#@.",
".@#$$%%%%%%%%%%%%%%$$#@.",
".+#$$%%%%%%%%%%%%%%$$#+.",
".++##$$$%%%%%%%%$$$##++.",
".#++&###$$$$$$$$###&++#.",
" .#@++&&########&&++@#. ",
"  .##@+++&&&&&&+++@##.  ",
"   ..###@++++++@###..   ",
"     ..##########..     ",
"       .$######$.       ",
"      ..#$$$$$$#..      ",
"     .#@#$####$#@#.     ",
"     .@@#$$$$$$#@@.     ",
"     .@@#$$$$$$#@@.*=   ",
"     .@@@@@@@@@@@@.=    ",
"     .&&&&&&&&&&&&.     ",
"     .@+++++++++@@.     ",
"     .@++++++@+@+@.     "};
