/* XPM */
static char * ground_top_left_xpm[] = {
"24 24 11 1",
" 	c #3D8BAF",
".	c #366392",
"+	c #45B2CB",
"@	c #595059",
"#	c #7D7071",
"$	c #8C9C94",
"%	c #3D3347",
"&	c #0E3B28",
"*	c #195524",
"=	c #246F20",
"-	c #488A1B",
"                        ",
"                        ",
"               ..    +++",
"        ...   ..   +++  ",
"       ....     @@@@@  @",
"       ...   @@@####@@@@",
"           @@##$$$###@%@",
"         @@##$$######@%%",
"      + @##$$#########@%",
"   .. + @#############@%",
"  ..  +.@#############@%",
"     ++@@############@@&",
"     + @@#########@@%%&&",
"     + %%#######@@**@&&&",
"    + %%@@####@@@%%=-&&*",
"    +@@###@@@@@@@&%*=-&*",
"     @$####@@*=-&&&*==**",
"     @$####@%%*--&&*****",
"  .. @#$####@%%==*****=*",
"  ...@#$####@@@&*****&**",
"   .. @#####@@*-=*******",
"     .%#####@*===*******",
"   + .%@###@%%**&&******",
"   + @@@@@@@@@**********"};
