/* XPM */
static char * ground_xpm[] = {
"24 24 4 1",
" 	c #195524",
".	c #488A1B",
"+	c #246F20",
"@	c #0E3B28",
"                        ",
"                        ",
"                        ",
"                        ",
"                        ",
"                        ",
"    ..+@ +@             ",
"     +.+@+              ",
"      ++@ +++           ",
"      ++ +++@@          ",
"         ++@@           ",
"                        ",
"                        ",
"                        ",
"                        ",
"                        ",
"                .+      ",
"          ..+  ++@@     ",
"           +.+ ++       ",
"            ++  @ ++@   ",
"                 ++@    ",
"                        ",
"                        ",
"                        "};
