/* XPM */
static char * ground_wall_top_xpm[] = {
"24 24 11 1",
" 	c #366392",
".	c #3D8BAF",
"+	c #45B2CB",
"@	c #3D3347",
"#	c #595059",
"$	c #7D7071",
"%	c #8C9C94",
"&	c #195524",
"*	c #246F20",
"=	c #0E3B28",
"-	c #488A1B",
"  ..++++......     .....",
"     .....++++..  ..++..",
". @####@  ..++++..+++...",
".@#$$$$####@ ..+++. @@@.",
"@#$$$%%$##$$#@@@@###$$#@",
"##$$$$%%$@$$$@@###$$$$$#",
"##$$$$$$$@$$$###$$%%$$$#",
"#@#$$$$$$@@$$#$$%%$$$$$$",
"@@@#$$$$#@&@##$%%$$$$$$$",
"@@@@#$$#@&*@@##$$$$$$$$#",
"=&*&==*==*-@@##$$$$$$$##",
"&**==**==--&==##$$$%#@@&",
"*-&==&&=*-=&===#$$%##@&&",
"=&&&&&&&&=&&&==&####&&*&",
"&**&&&&&&**&&&&&&*&&&**&",
"&*--&&&&&*-*&&&&*-&&**&&",
"&&--&&&&&=*-&&&*-&&&&&&&",
"&==*&&&&&==-&&&&==&&&&&&",
"&&&&&&&&&&=&&&&&&&&***&&",
"&&&&&&&&&&&&&&&&&&&&*--&",
"&&&&**&&&&&&&&&&&&&=&*-&",
"&&&&***&&&&&&&&&&&&==&*&",
"&&&==--&&&&&&&&&&&&&=&&&",
"&&&&=&-&&&&&&&&&&&&&&&&&"};
