/* XPM */
static char * wall_inside_xpm[] = {
"24 24 11 1",
" 	c #195524",
".	c #246F20",
"+	c #488A1B",
"@	c #0E3B28",
"#	c #595059",
"$	c #3D3347",
"%	c #7D7071",
"&	c #2E1C2C",
"*	c #8C9C94",
"=	c #366392",
"-	c #3D8BAF",
"                        ",
"                        ",
"        ..              ",
"  ++.  ..@@        ++.  ",
"   +.. . @        ++.   ",
" +. ..@  .        .. @  ",
"  ... @@            @@@@",
"   ..        @@   ####$@",
"            @@@###%%%%$$",
"           +.@#%%%%%%%%&",
"          ++ @#%%%%***%&",
" .++      + ###%%**%%%%$",
"  .+. .  @ %%%#%%%%####$",
"   .. .@@@%%%%%########$",
"       @@%%%%%*%##$$###$",
"         %%%%%%*%#$$###&",
"         %%%%%%**%$$###&",
"         #%%%%%%*%$$###&",
"     ..  #.+.%%%%%#$###&",
"      .. .++##%%%%#$##$&",
"      .. ..##%%%%%#$#$$&",
"       @@. #%%%%%#&$$$&&",
"        @  ######$&$$&=-",
"            $###$$&$&=--"};
